<?xml version="1.0" encoding="UTF-8"?>
<svg id="Layer_1" xmlns="http://www.w3.org/2000/svg" version="1.1" viewBox="0 0 822.703 107.246">
  <!-- Generator: Adobe Illustrator 30.3.0, SVG Export Plug-In . SVG Version: 2.1.3 Build 182)  -->
  <defs>
    <style>
      .st0 {
        fill: #fff;
      }

      .st1 {
        fill: #085cf0;
      }
    </style>
  </defs>
  <g>
    <path class="st0" d="M374.662,46.198c19.199,6.45,28.948,14.399,28.948,30.148,0,17.549-15.6,30.899-35.998,30.899-15,0-33.492-6.217-45.424-23.498l12.146-12.664c10.123,13.996,22.628,18.313,33.277,18.313,9.449,0,15.749-4.95,15.749-12.3,0-6.899-6.3-10.049-20.549-14.699-20.399-6.9-30.899-14.399-30.899-31.349,0-17.399,15-29.549,34.348-29.549,12.6,0,24.449,4.95,33.899,14.099l-11.7,13.649c-7.35-6.75-14.1-9.899-22.049-9.899-8.25,0-14.249,3.9-14.249,10.95,0,7.5,6.899,10.799,22.499,15.899Z"/>
    <path class="st0" d="M461.955,82.646l12.75,12.75c-7.65,8.1-16.649,11.85-27.6,11.85-21.148,0-36.748-15.299-36.748-35.999s15.6-35.999,36.748-35.999c9.6,0,18.899,3.75,26.1,10.649l-12.75,13.05c-3.75-3.6-8.249-5.55-13.35-5.55-9.6,0-16.648,7.649-16.648,17.849s7.049,17.699,16.648,17.699c5.7,0,10.5-2.1,14.85-6.3Z"/>
    <path class="st0" d="M479.975,0h19.949v46.648c5.399-7.2,13.199-11.399,21.148-11.399,16.35,0,26.399,11.549,26.399,30.149v40.348h-19.949v-37.349c0-9.299-4.65-14.999-12.6-14.999-5.7,0-10.949,3.3-14.999,9.75v42.598h-19.949V0Z"/>
    <path class="st0" d="M624.566,70.947c0,2.25-.149,4.65-.6,6.15h-51.598c2.1,9,9.3,14.399,19.199,14.399,6.6,0,12.299-1.95,17.099-7.05l11.25,11.7c-7.35,7.35-17.1,11.1-27.749,11.1-22.349,0-37.948-15.449-37.948-35.999s15.449-35.999,35.849-35.999c19.799,0,34.498,15.299,34.498,35.698ZM572.519,64.647h34.049c-1.8-8.4-7.649-13.95-17.1-13.95-8.399,0-14.849,5.4-16.949,13.95Z"/>
    <path class="st0" d="M631.314,36.749h17.399l2.55,9.899c5.25-7.05,12.6-11.399,20.399-11.399,10.35,0,17.849,4.95,22.049,12.899,6.149-7.95,14.999-12.899,23.999-12.899,15.899,0,25.649,11.399,25.649,30.149v40.348h-19.949v-37.349c0-9.449-4.351-14.999-11.85-14.999-5.55,0-10.35,3.149-14.25,10.199v42.148h-19.949v-37.349c0-9.449-4.35-14.999-11.85-14.999-5.55,0-10.35,3.149-14.249,9.75v42.598h-19.949V36.749Z"/>
    <path class="st0" d="M750.107,71.247c0-20.399,13.499-35.999,32.248-35.999,8.7,0,15.75,4.05,20.699,10.799l2.25-9.299h17.399v68.997h-17.399l-2.399-9.45c-4.8,6.9-11.85,10.95-20.55,10.95-18.599,0-32.248-15.6-32.248-35.999ZM803.804,71.247c0-10.35-7.35-18.149-17.099-18.149s-17.1,7.8-17.1,18.149,7.35,18.149,17.1,18.149,17.099-7.8,17.099-18.149Z"/>
  </g>
  <g>
    <path class="st1" d="M126.533,71.247c0-20.399,13.5-35.999,32.249-35.999,8.7,0,15.75,4.05,20.699,10.799l2.25-9.299h17.399v68.997h-17.399l-2.4-9.45c-4.8,6.9-11.85,10.95-20.549,10.95-18.599,0-32.249-15.6-32.249-35.999ZM180.231,71.247c0-10.35-7.35-18.149-17.099-18.149s-17.1,7.8-17.1,18.149,7.35,18.149,17.1,18.149,17.099-7.8,17.099-18.149Z"/>
    <polygon class="st1" points="121.32 3 93.872 80.247 81.348 45.004 97.046 3 76.497 3 71.46 17.176 66.422 3 44.823 3 61.06 46.445 49.048 80.247 21.599 3 0 3 38.398 105.746 58.648 105.746 70.935 72.869 83.222 105.746 103.471 105.746 141.87 3 121.32 3"/>
    <path class="st1" d="M316.963,87.612c-1.915.976-3.81,1.484-5.646,1.484-5.55,0-8.85-4.2-8.85-10.949v-24.299h22.199v-17.099h-22.199v-19.649h-16.5l-2.55,19.649h-1.05l-13.8.75v16.349h13.8v24.749c0,18,9.75,28.649,26.399,28.649,7.073,0,14.646-2.755,20.143-6.91-4.537-3.608-8.574-7.874-11.947-12.723Z"/>
    <path class="st1" d="M254.272,87.612c-1.915.976-3.81,1.484-5.646,1.484-5.55,0-8.85-4.2-8.85-10.949v-24.299h22.199v-17.099h-22.199v-19.649h-16.5l-2.55,19.649h-1.05l-13.8.75v16.349h13.8v24.749c0,18,9.75,28.649,26.399,28.649,7.073,0,14.646-2.755,20.143-6.91-4.537-3.608-8.574-7.874-11.947-12.723Z"/>
  </g>
</svg>